<svg width="101" height="100" viewBox="0 0 101 100" fill="none" xmlns="http://www.w3.org/2000/svg">
<path id="Ellipse 3" d="M50.334 6.25C50.334 2.79822 53.143 -0.0402621 56.5679 0.390098C64.248 1.35517 71.6293 4.09457 78.1125 8.42652C86.335 13.9206 92.7436 21.7295 96.528 30.8658C100.312 40.0021 101.303 50.0555 99.3732 59.7545C97.444 69.4536 92.6819 78.3627 85.6893 85.3553C78.6967 92.348 69.7876 97.11 60.0885 99.0393C50.3895 100.969 40.3361 99.9784 31.1998 96.194C22.0635 92.4096 14.2546 86.001 8.7605 77.7785C4.42855 71.2953 1.68915 63.914 0.724082 56.2339C0.293722 52.809 3.1322 50 6.58398 50C10.0358 50 12.7809 52.8173 13.3536 56.2212C14.2289 61.4242 16.1966 66.408 19.1539 70.8339C23.2744 77.0007 29.1311 81.8072 35.9834 84.6455C42.8356 87.4838 50.3756 88.2264 57.6499 86.7794C64.9242 85.3325 71.606 81.761 76.8505 76.5165C82.095 71.272 85.6665 64.5902 87.1134 57.3159C88.5604 50.0416 87.8178 42.5016 84.9795 35.6494C82.1412 28.7971 77.3347 22.9404 71.1679 18.8199C66.742 15.8626 61.7582 13.8949 56.5552 13.0196C53.1512 12.447 50.334 9.70178 50.334 6.25Z" fill="#5E4979"/>
</svg>
