<svg width="76" height="80" viewBox="0 0 76 80" fill="none" xmlns="http://www.w3.org/2000/svg">
<path id="Vector" d="M30.591 46.965L28.282 45.7093V47.5065C27.031 47.0735 26.077 46.6793 25.4443 46.2935C25.0735 46.0674 24.9328 45.9191 24.8853 45.8577V43.764H26.2036L44.8254 50.717C39.3814 50.2553 34.2846 48.9736 30.591 46.965ZM21.7603 45.9507C21.7603 46.403 21.8637 46.8049 22.0328 47.1608H20.0619H18.4994V48.7233V66.658V67.8366L19.6327 68.1604L42.4587 74.6822L42.8559 74.7956L43.2573 74.698L63.366 69.8067L64.5592 69.5165V68.2885C64.5592 67.2097 64.2661 66.1002 63.7093 65.2148C63.494 64.8725 63.2132 64.5284 62.8681 64.2371C63.9075 64.023 64.9143 63.7776 65.8794 63.4983C66.8448 64.8458 67.4124 66.4991 67.4124 68.2885V70.4006L42.8808 78.0667L20.5148 71.293L20.2933 71.2259H20.0619H2.06445V43.764H21.7603V45.9507ZM63.0197 61.0075C59.1618 61.8817 54.652 62.2854 50.0674 62.3204C50.0316 61.8696 50.055 61.276 50.0996 60.5522C52.375 60.5228 54.4915 60.349 56.4306 60.0684H59.1923C60.5756 60.0684 61.8775 60.4076 63.0197 61.0075ZM46.9322 62.1959L43.0294 61.8411L42.9589 61.8347H42.909C42.9066 61.8345 42.9037 61.8344 42.9001 61.8342C42.8746 61.8327 42.8188 61.8287 42.7294 61.8187C42.5502 61.7988 42.2384 61.7553 41.7678 61.6612C40.8252 61.4727 39.2585 61.0838 36.8604 60.2844L36.8034 60.2654L36.7452 60.2509L32.1132 59.0929L32.3604 58.5984L38.3072 59.5445C38.5529 59.6103 38.8258 59.6514 39.0488 59.6806C39.3563 59.7209 39.7195 59.7565 40.1063 59.788C40.882 59.8514 41.8098 59.9033 42.6931 59.9444C43.5791 59.9856 44.4326 60.0164 45.0638 60.037C45.3796 60.0472 45.6404 60.0549 45.8226 60.0601L46.0339 60.0659L46.0899 60.0674L46.1045 60.0677L46.1083 60.0678L46.1094 60.0679L46.1097 60.0679C46.1097 60.0679 46.1098 60.0679 46.1489 58.5059L46.1098 60.0679L46.9974 60.0901C46.9531 60.7607 46.9087 61.5107 46.9322 62.1959ZM51.0301 57.4054C50.7608 57.4142 50.4888 57.4208 50.214 57.4252C50.2067 57.2741 50.1959 57.1264 50.1809 56.9838C50.1316 56.514 50.0243 55.9398 49.742 55.4261C49.4258 54.8509 48.8626 54.3201 48.0188 54.1892C47.6826 54.1371 47.3274 54.0673 46.9576 53.9829C47.7749 54.0176 48.5934 54.0349 49.4097 54.0349C49.5075 54.0349 49.6052 54.0347 49.703 54.0342C50.3929 55.0276 50.8553 56.1798 51.0301 57.4054ZM64.1928 58.098C64.2359 58.0811 64.2788 58.0641 64.3215 58.0471C66.1049 57.3372 67.5644 56.5226 68.6093 55.6745C69.1314 55.2507 69.5887 54.7874 69.9265 54.2878C70.2583 53.7971 70.5374 53.1765 70.5374 52.4724V48.3376V45.7093L68.2285 46.965C63.8965 49.3207 57.6345 50.6766 51.1458 50.8824C50.0378 49.7347 48.6732 48.8204 47.1214 48.2385L47.1193 48.2377L44.5723 47.2867C46.0945 47.4327 47.7094 47.5132 49.4097 47.5132C55.6507 47.5132 60.7413 46.4287 64.3215 45.0036C66.1049 44.2938 67.5644 43.4791 68.6093 42.631C69.1314 42.2072 69.5887 41.7439 69.9265 41.2444C70.2583 40.7536 70.5374 40.133 70.5374 39.4289V35.2941V32.6659L68.2285 33.9215C63.5111 36.4868 56.505 37.8664 49.4097 37.8664C42.3145 37.8664 35.3083 36.4868 30.591 33.9215L28.282 32.6659V35.2941V39.4289C28.282 40.133 28.5612 40.7536 28.893 41.2444C28.9519 41.3315 29.0144 41.4175 29.0803 41.5024L27.0324 40.7377L26.768 40.639H26.4858H24.8853V13.342C24.8853 10.0003 27.432 7.1406 32.1419 5.0356C36.7869 2.95954 43.0767 1.86099 49.4097 1.86099C55.7428 1.86099 62.0325 2.95954 66.6776 5.0356C71.3874 7.1406 73.9342 10.0003 73.9342 13.342V52.4724C73.9342 55.7224 71.5126 58.1874 66.8393 59.9004C66.0512 59.1817 65.161 58.5729 64.1928 58.098ZM24.8637 45.8256C24.8638 45.8256 24.8645 45.8268 24.8656 45.8292C24.8642 45.8268 24.8637 45.8256 24.8637 45.8256ZM30.591 20.878L28.282 19.6224V22.2507V26.3854C28.282 27.0896 28.5612 27.7101 28.893 28.2009C29.2307 28.7004 29.6881 29.1637 30.2101 29.5875C31.2551 30.4357 32.7146 31.2503 34.4979 31.9601C38.0782 33.3852 43.1688 34.4697 49.4097 34.4697C55.6507 34.4697 60.7413 33.3852 64.3215 31.9601C66.1049 31.2503 67.5644 30.4357 68.6093 29.5875C69.1314 29.1637 69.5887 28.7004 69.9265 28.2009C70.2583 27.7101 70.5374 27.0896 70.5374 26.3854V22.2507V19.6224L68.2285 20.878C63.5111 23.4433 56.505 24.8229 49.4097 24.8229C42.3145 24.8229 35.3083 23.4433 30.591 20.878ZM14.5348 69.5656L16.1217 69.5904V68.0033V47.6908V46.1283H14.5592H6.74669H5.18419V47.6908V67.8812V69.4195L6.72227 69.4435L14.5348 69.5656ZM70.5374 13.342C70.5374 12.6379 70.2583 12.0173 69.9265 11.5265C69.5887 11.027 69.1314 10.5637 68.6093 10.1399C67.5644 9.29176 66.1049 8.47714 64.3215 7.76729C60.7413 6.34219 55.6507 5.25773 49.4097 5.25773C43.1688 5.25773 38.0782 6.34219 34.4979 7.76729C32.7146 8.47714 31.2551 9.29176 30.2101 10.1399C29.6881 10.5637 29.2307 11.027 28.893 11.5265C28.5612 12.0173 28.282 12.6379 28.282 13.342C28.282 14.0461 28.5612 14.6667 28.893 15.1574C29.2307 15.657 29.6881 16.1203 30.2101 16.544C31.2551 17.3922 32.7146 18.2068 34.4979 18.9167C38.0782 20.3418 43.1688 21.4262 49.4097 21.4262C55.6507 21.4262 60.7413 20.3418 64.3215 18.9167C66.1049 18.2068 67.5644 17.3922 68.6093 16.544C69.1314 16.1203 69.5887 15.657 69.9265 15.1574C70.2583 14.6667 70.5374 14.0461 70.5374 13.342Z" fill="#5E4979" stroke="#5E4979" stroke-width="3.125"/>
</svg>
