<svg width="101" height="100" viewBox="0 0 101 100" fill="none" xmlns="http://www.w3.org/2000/svg">
<g id="Nav Icons">
<g id="Vector">
<path d="M36.6062 51.1953C36.6062 50.2629 36.9766 49.3687 37.6359 48.7094C38.2952 48.0501 39.1894 47.6797 40.1218 47.6797H58.8718C59.8042 47.6797 60.6984 48.0501 61.3577 48.7094C62.017 49.3687 62.3874 50.2629 62.3874 51.1953C62.3874 52.1277 62.017 53.0219 61.3577 53.6812C60.6984 54.3405 59.8042 54.7109 58.8718 54.7109H40.1218C39.1894 54.7109 38.2952 54.3405 37.6359 53.6812C36.9766 53.0219 36.6062 52.1277 36.6062 51.1953ZM31.9187 61.7422C30.9863 61.7422 30.092 62.1126 29.4327 62.7719C28.7734 63.4312 28.403 64.3254 28.403 65.2578C28.403 66.1902 28.7734 67.0844 29.4327 67.7437C30.092 68.403 30.9863 68.7734 31.9187 68.7734H50.6687C51.6011 68.7734 52.4953 68.403 53.1546 67.7437C53.8139 67.0844 54.1843 66.1902 54.1843 65.2578C54.1843 64.3254 53.8139 63.4312 53.1546 62.7719C52.4953 62.1126 51.6011 61.7422 50.6687 61.7422H31.9187Z" fill="#5E4979"/>
<path d="M74.0871 12.5C81.8378 12.5 88.1452 18.7231 88.1452 26.5581C88.1452 31.1598 86.5613 35.6162 84.4761 39.7634C82.4001 43.8824 79.6588 48.0014 77.0628 51.8908L77.0112 51.9705C74.3495 55.9677 71.8378 59.7446 69.9775 63.4325C68.1124 67.1298 67.0581 70.4335 67.0581 73.4419C67.0585 74.6562 67.3736 75.8497 67.9725 76.9061C68.5714 77.9625 69.4338 78.8456 70.4756 79.4696C71.5174 80.0935 72.703 80.4369 73.917 80.4663C75.131 80.4957 76.3319 80.2101 77.4026 79.6373C78.4734 79.0645 79.3775 78.2241 80.0268 77.1979C80.6762 76.1718 81.0486 74.9949 81.1078 73.782C81.167 72.5691 80.911 71.3616 80.3647 70.2771C79.8184 69.1926 79.0005 68.2681 77.9906 67.5937C77.246 67.0631 76.7375 66.2633 76.573 65.3639C76.4085 64.4645 76.6009 63.5364 77.1095 62.7766C77.6181 62.0168 78.4027 61.4851 79.2969 61.2944C80.1911 61.1036 81.1244 61.2688 81.8988 61.7549C84.4057 63.4309 86.3072 65.8685 87.3227 68.7079C88.3381 71.5474 88.4137 74.6381 87.5381 77.5237C86.6625 80.4093 84.8823 82.9369 82.4602 84.7333C80.0382 86.5297 77.1027 87.4997 74.0871 87.5H27.2268C23.4983 87.5 19.9226 86.0189 17.2862 83.3825C14.6498 80.7461 13.1687 77.1703 13.1687 73.4419C13.1687 66.0286 17.3439 58.7512 21.4957 52.3266C22.4751 50.8177 23.4545 49.3416 24.4151 47.8936C26.6316 44.5712 28.7404 41.3988 30.4461 38.2966H24.9306C22.2315 38.2966 18.4592 37.6734 15.9943 34.6275C14.1377 32.351 13.1378 29.4956 13.1687 26.5581C13.1687 22.8297 14.6498 19.2539 17.2862 16.6175C19.9226 13.9811 23.4983 12.5 27.2268 12.5H74.0871ZM74.0871 19.5291C72.2229 19.5291 70.435 20.2696 69.1168 21.5878C67.7986 22.906 67.0581 24.6939 67.0581 26.5581C67.0581 28.7887 68.1031 30.4663 70.1837 31.8627C70.8094 32.2821 71.2839 32.8915 71.537 33.601C71.7902 34.3106 71.8086 35.0826 71.5897 35.8034C71.3708 36.5243 70.9261 37.1557 70.3211 37.6045C69.7161 38.0534 68.9829 38.296 68.2296 38.2966H38.3233C36.1349 42.9967 32.9765 47.739 30.015 52.1814C29.1152 53.5356 28.2296 54.8571 27.4002 56.1411C23.1499 62.7156 20.1977 68.3622 20.1977 73.4419C20.1977 75.3061 20.9383 77.094 22.2565 78.4122C23.5747 79.7304 25.3625 80.4709 27.2268 80.4709H61.9081C60.6735 78.3344 60.0253 75.9095 60.029 73.4419C60.029 68.8543 61.6129 64.4072 63.7029 60.2648C65.7694 56.1692 68.4967 52.0736 71.0834 48.1935L71.163 48.0717C73.8247 44.0745 76.3317 40.3023 78.1968 36.6003C80.0618 32.8983 81.1162 29.5853 81.1162 26.5581C81.1162 22.6312 77.9812 19.5291 74.0871 19.5291ZM27.2268 19.5291C25.3625 19.5291 23.5747 20.2696 22.2565 21.5878C20.9383 22.906 20.1977 24.6939 20.1977 26.5581C20.1977 28.0623 20.6663 29.2245 21.4629 30.2038C21.9175 30.7662 22.9859 31.2676 24.9306 31.2676H60.8913C60.3108 29.7658 60.0183 28.1681 60.029 26.5581C60.029 23.9995 60.7132 21.5956 61.9081 19.5291H27.2268Z" fill="#5E4979"/>
</g>
</g>
</svg>
